<mxfile host="app.diagrams.net" modified="2020-07-30T18:05:34.349Z" agent="5.0 (X11)" etag="TVk_yu9qbQWDrsrlptzb" compressed="false" version="13.5.7" type="device">
  <diagram id="1eYONRuu5GI8S48I8-pM" name="Page-1">
    <mxGraphModel dx="1044" dy="636" grid="1" gridSize="10" guides="1" tooltips="1" connect="1" arrows="1" fold="1" page="1" pageScale="1" pageWidth="850" pageHeight="1100" math="0" shadow="0">
      <root>
        <mxCell id="0" />
        <mxCell id="1" parent="0" />
        <mxCell id="urFQ762IdOI_51ou7fjB-16" value="&lt;b&gt;Action:&lt;/b&gt; A = T" style="edgeStyle=elbowEdgeStyle;rounded=0;orthogonalLoop=1;jettySize=auto;html=1;" parent="1" source="urFQ762IdOI_51ou7fjB-4" target="urFQ762IdOI_51ou7fjB-36" edge="1">
          <mxGeometry x="-0.3963" relative="1" as="geometry">
            <mxPoint x="240" y="200" as="targetPoint" />
            <Array as="points">
              <mxPoint x="120" y="190" />
            </Array>
            <mxPoint as="offset" />
          </mxGeometry>
        </mxCell>
        <mxCell id="urFQ762IdOI_51ou7fjB-18" value="&lt;b&gt;Action:&lt;/b&gt; B = T" style="edgeStyle=elbowEdgeStyle;rounded=0;orthogonalLoop=1;jettySize=auto;html=1;" parent="1" source="urFQ762IdOI_51ou7fjB-4" target="urFQ762IdOI_51ou7fjB-34" edge="1">
          <mxGeometry relative="1" as="geometry">
            <mxPoint x="240" y="440" as="targetPoint" />
            <mxPoint as="offset" />
          </mxGeometry>
        </mxCell>
        <mxCell id="urFQ762IdOI_51ou7fjB-19" value="&lt;b&gt;Action:&lt;/b&gt; C = T" style="edgeStyle=elbowEdgeStyle;rounded=0;orthogonalLoop=1;jettySize=auto;html=1;" parent="1" source="urFQ762IdOI_51ou7fjB-4" target="urFQ762IdOI_51ou7fjB-35" edge="1">
          <mxGeometry x="-0.3963" relative="1" as="geometry">
            <mxPoint x="240" y="680" as="targetPoint" />
            <Array as="points">
              <mxPoint x="120" y="690" />
            </Array>
            <mxPoint as="offset" />
          </mxGeometry>
        </mxCell>
        <mxCell id="urFQ762IdOI_51ou7fjB-4" value="&lt;div&gt;&lt;b&gt;Fluent A:&lt;/b&gt; F&lt;br&gt;&lt;/div&gt;&lt;div&gt;&lt;b&gt;Fluent B:&lt;/b&gt; F&lt;/div&gt;&lt;div&gt;&lt;b&gt;Fluent C:&lt;/b&gt; F&lt;br&gt;&lt;/div&gt;" style="ellipse;whiteSpace=wrap;html=1;aspect=fixed;" parent="1" vertex="1">
          <mxGeometry x="80" y="400" width="80" height="80" as="geometry" />
        </mxCell>
        <mxCell id="urFQ762IdOI_51ou7fjB-42" value="&lt;b&gt;Action:&lt;/b&gt; C = T" style="edgeStyle=elbowEdgeStyle;rounded=0;jumpStyle=arc;orthogonalLoop=1;jettySize=auto;html=1;" parent="1" source="urFQ762IdOI_51ou7fjB-34" target="urFQ762IdOI_51ou7fjB-41" edge="1">
          <mxGeometry x="-0.7333" y="10" relative="1" as="geometry">
            <Array as="points">
              <mxPoint x="430" y="680" />
            </Array>
            <mxPoint as="offset" />
          </mxGeometry>
        </mxCell>
        <mxCell id="urFQ762IdOI_51ou7fjB-49" value="&lt;b&gt;Action:&lt;/b&gt; A = T" style="edgeStyle=elbowEdgeStyle;rounded=0;jumpStyle=arc;orthogonalLoop=1;jettySize=auto;html=1;" parent="1" source="urFQ762IdOI_51ou7fjB-34" target="urFQ762IdOI_51ou7fjB-37" edge="1">
          <mxGeometry x="-0.8255" relative="1" as="geometry">
            <Array as="points">
              <mxPoint x="340" y="350" />
            </Array>
            <mxPoint as="offset" />
          </mxGeometry>
        </mxCell>
        <mxCell id="urFQ762IdOI_51ou7fjB-34" value="&lt;div&gt;&lt;b&gt;Fluent A:&lt;/b&gt; F&lt;br&gt;&lt;/div&gt;&lt;div&gt;&lt;b&gt;Fluent B:&lt;/b&gt; T&lt;br&gt;&lt;/div&gt;&lt;div&gt;&lt;b&gt;Fluent C:&lt;/b&gt; F&lt;br&gt;&lt;/div&gt;" style="ellipse;whiteSpace=wrap;html=1;aspect=fixed;" parent="1" vertex="1">
          <mxGeometry x="280" y="460" width="80" height="80" as="geometry" />
        </mxCell>
        <mxCell id="urFQ762IdOI_51ou7fjB-46" value="&lt;b&gt;Action:&lt;/b&gt; B = T" style="edgeStyle=elbowEdgeStyle;rounded=0;jumpStyle=arc;orthogonalLoop=1;jettySize=auto;html=1;" parent="1" source="urFQ762IdOI_51ou7fjB-35" target="urFQ762IdOI_51ou7fjB-41" edge="1">
          <mxGeometry y="32" relative="1" as="geometry">
            <Array as="points">
              <mxPoint x="400" y="690" />
            </Array>
            <mxPoint x="-30" y="42" as="offset" />
          </mxGeometry>
        </mxCell>
        <mxCell id="urFQ762IdOI_51ou7fjB-50" value="&lt;b&gt;Action:&lt;/b&gt; A = T" style="edgeStyle=elbowEdgeStyle;rounded=0;jumpStyle=arc;orthogonalLoop=1;jettySize=auto;html=1;" parent="1" source="urFQ762IdOI_51ou7fjB-35" target="urFQ762IdOI_51ou7fjB-38" edge="1">
          <mxGeometry x="-0.6851" y="10" relative="1" as="geometry">
            <Array as="points">
              <mxPoint x="480" y="650" />
            </Array>
            <mxPoint as="offset" />
          </mxGeometry>
        </mxCell>
        <mxCell id="urFQ762IdOI_51ou7fjB-35" value="&lt;div&gt;&lt;b&gt;Fluent A:&lt;/b&gt; F&lt;br&gt;&lt;/div&gt;&lt;div&gt;&lt;b&gt;Fluent B:&lt;/b&gt; F&lt;/div&gt;&lt;div&gt;&lt;b&gt;Fluent C:&lt;/b&gt; T&lt;br&gt;&lt;/div&gt;" style="ellipse;whiteSpace=wrap;html=1;aspect=fixed;" parent="1" vertex="1">
          <mxGeometry x="240" y="640" width="80" height="80" as="geometry" />
        </mxCell>
        <mxCell id="urFQ762IdOI_51ou7fjB-39" value="&lt;b&gt;Action:&lt;/b&gt; B = T" style="edgeStyle=elbowEdgeStyle;rounded=0;jumpStyle=arc;orthogonalLoop=1;jettySize=auto;html=1;" parent="1" source="urFQ762IdOI_51ou7fjB-36" target="urFQ762IdOI_51ou7fjB-37" edge="1">
          <mxGeometry y="32" relative="1" as="geometry">
            <Array as="points">
              <mxPoint x="400" y="190" />
            </Array>
            <mxPoint x="-30" y="22" as="offset" />
          </mxGeometry>
        </mxCell>
        <mxCell id="urFQ762IdOI_51ou7fjB-40" value="&lt;b&gt;Action:&lt;/b&gt; C = T" style="edgeStyle=elbowEdgeStyle;rounded=0;jumpStyle=arc;orthogonalLoop=1;jettySize=auto;html=1;" parent="1" source="urFQ762IdOI_51ou7fjB-36" target="urFQ762IdOI_51ou7fjB-38" edge="1">
          <mxGeometry x="-0.6" relative="1" as="geometry">
            <Array as="points">
              <mxPoint x="280" y="290" />
            </Array>
            <mxPoint as="offset" />
          </mxGeometry>
        </mxCell>
        <mxCell id="urFQ762IdOI_51ou7fjB-36" value="&lt;div&gt;&lt;b&gt;Fluent A:&lt;/b&gt; T&lt;br&gt;&lt;/div&gt;&lt;div&gt;&lt;b&gt;Fluent B:&lt;/b&gt; F&lt;/div&gt;&lt;div&gt;&lt;b&gt;Fluent C:&lt;/b&gt; F&lt;br&gt;&lt;/div&gt;" style="ellipse;whiteSpace=wrap;html=1;aspect=fixed;" parent="1" vertex="1">
          <mxGeometry x="240" y="160" width="80" height="80" as="geometry" />
        </mxCell>
        <mxCell id="urFQ762IdOI_51ou7fjB-45" value="&lt;b&gt;Action:&lt;/b&gt; C = T" style="edgeStyle=elbowEdgeStyle;rounded=0;jumpStyle=arc;orthogonalLoop=1;jettySize=auto;html=1;" parent="1" source="urFQ762IdOI_51ou7fjB-37" target="urFQ762IdOI_51ou7fjB-43" edge="1">
          <mxGeometry x="0.3963" relative="1" as="geometry">
            <Array as="points">
              <mxPoint x="680" y="190" />
            </Array>
            <mxPoint as="offset" />
          </mxGeometry>
        </mxCell>
        <mxCell id="urFQ762IdOI_51ou7fjB-37" value="&lt;div&gt;&lt;b&gt;Fluent A:&lt;/b&gt; T&lt;br&gt;&lt;/div&gt;&lt;div&gt;&lt;b&gt;Fluent B:&lt;/b&gt; T&lt;br&gt;&lt;/div&gt;&lt;div&gt;&lt;b&gt;Fluent C:&lt;/b&gt; F&lt;br&gt;&lt;/div&gt;" style="ellipse;whiteSpace=wrap;html=1;aspect=fixed;" parent="1" vertex="1">
          <mxGeometry x="480" y="160" width="80" height="80" as="geometry" />
        </mxCell>
        <mxCell id="urFQ762IdOI_51ou7fjB-48" value="&lt;b&gt;Action:&lt;/b&gt; B = T" style="edgeStyle=elbowEdgeStyle;rounded=0;jumpStyle=arc;orthogonalLoop=1;jettySize=auto;html=1;" parent="1" source="urFQ762IdOI_51ou7fjB-38" target="urFQ762IdOI_51ou7fjB-43" edge="1">
          <mxGeometry relative="1" as="geometry" />
        </mxCell>
        <mxCell id="urFQ762IdOI_51ou7fjB-38" value="&lt;div&gt;&lt;b&gt;Fluent A:&lt;/b&gt; T&lt;br&gt;&lt;/div&gt;&lt;div&gt;&lt;b&gt;Fluent B:&lt;/b&gt; F&lt;/div&gt;&lt;div&gt;&lt;b&gt;Fluent C:&lt;/b&gt; T&lt;br&gt;&lt;/div&gt;" style="ellipse;whiteSpace=wrap;html=1;aspect=fixed;" parent="1" vertex="1">
          <mxGeometry x="440" y="340" width="80" height="80" as="geometry" />
        </mxCell>
        <mxCell id="urFQ762IdOI_51ou7fjB-47" value="&lt;b&gt;Action:&lt;/b&gt; A = T" style="edgeStyle=elbowEdgeStyle;rounded=0;jumpStyle=arc;orthogonalLoop=1;jettySize=auto;html=1;" parent="1" source="urFQ762IdOI_51ou7fjB-41" target="urFQ762IdOI_51ou7fjB-43" edge="1">
          <mxGeometry x="0.3963" relative="1" as="geometry">
            <Array as="points">
              <mxPoint x="680" y="690" />
            </Array>
            <mxPoint as="offset" />
          </mxGeometry>
        </mxCell>
        <mxCell id="urFQ762IdOI_51ou7fjB-41" value="&lt;div&gt;&lt;b&gt;Fluent A:&lt;/b&gt; F&lt;br&gt;&lt;/div&gt;&lt;div&gt;&lt;b&gt;Fluent B:&lt;/b&gt; T&lt;br&gt;&lt;/div&gt;&lt;div&gt;&lt;b&gt;Fluent C:&lt;/b&gt; T&lt;br&gt;&lt;/div&gt;" style="ellipse;whiteSpace=wrap;html=1;aspect=fixed;" parent="1" vertex="1">
          <mxGeometry x="480" y="640" width="80" height="80" as="geometry" />
        </mxCell>
        <mxCell id="urFQ762IdOI_51ou7fjB-43" value="&lt;div&gt;&lt;b&gt;Fluent A:&lt;/b&gt; T&lt;br&gt;&lt;/div&gt;&lt;div&gt;&lt;b&gt;Fluent B:&lt;/b&gt; T&lt;br&gt;&lt;/div&gt;&lt;div&gt;&lt;b&gt;Fluent C:&lt;/b&gt; T&lt;br&gt;&lt;/div&gt;" style="ellipse;whiteSpace=wrap;html=1;aspect=fixed;" parent="1" vertex="1">
          <mxGeometry x="640" y="400" width="80" height="80" as="geometry" />
        </mxCell>
      </root>
    </mxGraphModel>
  </diagram>
</mxfile>
